<?xml version="1.0" standalone="no"?>
<!DOCTYPE svg PUBLIC "-//W3C//DTD SVG 20010904//EN"
 "http://www.w3.org/TR/2001/REC-SVG-20010904/DTD/svg10.dtd">
<svg version="1.0" xmlns="http://www.w3.org/2000/svg"
 width="512.000000pt" height="512.000000pt" viewBox="0 0 512.000000 512.000000"
 preserveAspectRatio="xMidYMid meet">
<metadata>
Created by potrace 1.14, written by Peter Selinger 2001-2017
</metadata>
<g transform="translate(0.000000,512.000000) scale(0.100000,-0.100000)"
fill="#000000" stroke="none">
<path d="M2352 4969 c-12 -5 -22 -6 -22 -3 0 3 -13 -4 -29 -15 -16 -12 -33
-21 -38 -21 -5 0 -25 -17 -45 -37 -41 -42 -78 -116 -81 -163 -1 -16 -4 -31 -7
-31 -3 -1 -176 -3 -385 -4 -379 -3 -380 -3 -435 -27 -48 -22 -130 -90 -130
-109 0 -3 -53 -7 -117 -7 -65 -1 -133 -4 -151 -6 -60 -8 -185 -64 -204 -91 -4
-5 -8 -7 -8 -3 0 19 -119 -98 -160 -157 -65 -96 -93 -171 -114 -310 -9 -55
-27 -170 -41 -255 -14 -85 -28 -168 -31 -185 -2 -16 -7 -41 -9 -55 -3 -14 -7
-41 -10 -60 -3 -19 -7 -46 -10 -60 -2 -13 -7 -41 -10 -61 -3 -20 -12 -72 -20
-115 -13 -69 -23 -139 -28 -196 -1 -10 -4 -18 -7 -18 -3 0 -6 -10 -6 -22 -1
-13 -4 -39 -8 -58 -6 -32 -14 -84 -21 -135 -1 -11 -3 -20 -5 -20 -3 0 -9 -47
-11 -83 0 -17 -4 -34 -9 -37 -4 -2 -6 -16 -5 -30 2 -14 -1 -25 -6 -25 -6 0 -8
-4 -4 -9 3 -5 1 -29 -4 -53 -6 -24 -12 -54 -15 -68 -3 -14 -8 -36 -12 -50 -9
-32 -10 -1733 -1 -1780 4 -19 10 -50 13 -67 3 -18 11 -33 16 -33 5 0 7 -4 3
-9 -3 -5 -1 -12 5 -16 6 -4 8 -10 5 -15 -3 -4 2 -13 10 -20 8 -7 15 -17 15
-22 0 -38 170 -204 230 -224 3 -1 15 -5 28 -9 12 -4 22 -11 22 -14 0 -4 6 -8
13 -9 6 0 41 -7 77 -15 55 -12 351 -14 1985 -11 1056 1 1931 4 1945 6 60 10
170 56 198 84 7 8 18 11 24 8 7 -4 8 -2 4 4 -4 7 -2 12 4 12 6 0 24 13 40 30
16 16 35 30 41 30 7 0 10 3 6 6 -3 4 9 25 27 48 38 48 86 142 89 174 0 12 4
22 7 22 12 0 14 95 14 925 1 797 -1 907 -18 934 -3 5 -8 22 -10 38 -4 26 -12
77 -21 128 -2 11 -4 20 -5 20 -2 0 -6 29 -11 83 -2 17 -6 32 -9 32 -3 0 -6 17
-8 38 -3 49 -6 64 -15 80 -5 7 -3 12 3 12 7 0 8 6 1 18 -5 9 -10 33 -12 52 -2
19 -5 40 -8 45 -3 6 -7 24 -9 40 -4 47 -10 86 -21 144 -6 29 -8 57 -5 62 3 5
1 9 -3 9 -5 0 -10 15 -11 33 -1 18 -5 44 -8 57 -3 14 -7 39 -9 55 -5 32 -12
73 -22 120 -3 17 -7 44 -9 60 -9 90 -86 509 -104 559 -25 73 -78 169 -122 220
-43 51 -110 116 -119 116 -4 0 -14 6 -21 13 -18 19 -118 65 -150 71 -15 3 -32
7 -37 10 -5 4 -68 7 -140 8 -72 1 -131 4 -131 8 0 18 -81 86 -129 108 -50 23
-64 25 -225 26 l-171 1 -3 25 c-7 57 -35 119 -71 159 -39 43 -104 85 -115 74
-3 -4 -6 -2 -6 4 0 5 -6 11 -12 12 -37 7 -837 7 -856 0z"/>
</g>
</svg>
